<svg width="163" height="43" viewBox="0 0 163 43" fill="none" xmlns="http://www.w3.org/2000/svg">
<path d="M59.8103 30.1669V15.7909H54.2183V13.2469H68.4983V15.7909H62.9063V30.1669H59.8103ZM68.5466 30.1669V21.1429C68.5466 20.6309 68.5306 20.1109 68.4986 19.5829C68.4826 19.0549 68.4426 18.5429 68.3786 18.0469H71.2826L71.6186 21.3589H71.1386C71.2986 20.5589 71.5626 19.8949 71.9306 19.3669C72.3146 18.8389 72.7786 18.4469 73.3226 18.1909C73.8666 17.9349 74.4586 17.8069 75.0986 17.8069C75.3866 17.8069 75.6186 17.8229 75.7946 17.8549C75.9706 17.8709 76.1466 17.9109 76.3226 17.9749L76.2986 20.6149C75.9946 20.4869 75.7306 20.4069 75.5066 20.3749C75.2986 20.3429 75.0346 20.3269 74.7146 20.3269C74.0266 20.3269 73.4426 20.4709 72.9626 20.7589C72.4986 21.0469 72.1466 21.4469 71.9066 21.9589C71.6826 22.4709 71.5706 23.0549 71.5706 23.7109V30.1669H68.5466ZM82.5553 30.4069C81.4993 30.4069 80.5713 30.1589 79.7713 29.6629C78.9713 29.1509 78.3473 28.4229 77.8993 27.4789C77.4513 26.5349 77.2273 25.4069 77.2273 24.0949C77.2273 22.7829 77.4513 21.6629 77.8993 20.7349C78.3473 19.7909 78.9713 19.0709 79.7713 18.5749C80.5713 18.0629 81.4993 17.8069 82.5553 17.8069C83.5793 17.8069 84.4753 18.0629 85.2433 18.5749C86.0273 19.0709 86.5473 19.7429 86.8033 20.5909H86.5393L86.8033 18.0469H89.6833C89.6353 18.5429 89.5873 19.0469 89.5393 19.5589C89.5073 20.0709 89.4913 20.5749 89.4913 21.0709V30.1669H86.5153L86.4913 27.6709H86.7793C86.5233 28.5029 86.0033 29.1669 85.2193 29.6629C84.4353 30.1589 83.5473 30.4069 82.5553 30.4069ZM83.3953 28.1029C84.3393 28.1029 85.0993 27.7749 85.6753 27.1189C86.2513 26.4469 86.5393 25.4389 86.5393 24.0949C86.5393 22.7509 86.2513 21.7509 85.6753 21.0949C85.0993 20.4389 84.3393 20.1109 83.3953 20.1109C82.4513 20.1109 81.6913 20.4389 81.1153 21.0949C80.5393 21.7509 80.2513 22.7509 80.2513 24.0949C80.2513 25.4389 80.5313 26.4469 81.0913 27.1189C81.6673 27.7749 82.4353 28.1029 83.3953 28.1029ZM93.5741 30.1669V20.3029H91.2461V18.0469H94.4141L93.5741 18.8149V16.9669C93.5741 15.4629 93.9581 14.3269 94.7261 13.5589C95.5101 12.7909 96.6541 12.4069 98.1581 12.4069C98.5101 12.4069 98.8781 12.4309 99.2621 12.4789C99.6621 12.5269 100.006 12.6149 100.294 12.7429V15.0949C100.086 15.0149 99.8381 14.9509 99.5501 14.9029C99.2621 14.8549 98.9821 14.8309 98.7101 14.8309C98.2941 14.8309 97.9181 14.9109 97.5821 15.0709C97.2621 15.2309 97.0061 15.4789 96.8141 15.8149C96.6381 16.1349 96.5501 16.5669 96.5501 17.1109V18.5749L96.1181 18.0469H99.7421V20.3029H96.5741V30.1669H93.5741ZM106.157 30.4069C105.101 30.4069 104.173 30.1589 103.373 29.6629C102.573 29.1509 101.949 28.4229 101.501 27.4789C101.053 26.5349 100.829 25.4069 100.829 24.0949C100.829 22.7829 101.053 21.6629 101.501 20.7349C101.949 19.7909 102.573 19.0709 103.373 18.5749C104.173 18.0629 105.101 17.8069 106.157 17.8069C107.181 17.8069 108.077 18.0629 108.845 18.5749C109.629 19.0709 110.149 19.7429 110.405 20.5909H110.141L110.405 18.0469H113.285C113.237 18.5429 113.189 19.0469 113.141 19.5589C113.109 20.0709 113.093 20.5749 113.093 21.0709V30.1669H110.117L110.093 27.6709H110.381C110.125 28.5029 109.605 29.1669 108.821 29.6629C108.037 30.1589 107.149 30.4069 106.157 30.4069ZM106.997 28.1029C107.941 28.1029 108.701 27.7749 109.277 27.1189C109.853 26.4469 110.141 25.4389 110.141 24.0949C110.141 22.7509 109.853 21.7509 109.277 21.0949C108.701 20.4389 107.941 20.1109 106.997 20.1109C106.053 20.1109 105.293 20.4389 104.717 21.0949C104.141 21.7509 103.853 22.7509 103.853 24.0949C103.853 25.4389 104.133 26.4469 104.693 27.1189C105.269 27.7749 106.037 28.1029 106.997 28.1029ZM116.36 30.1669V12.5029H119.36V30.1669H116.36ZM128.234 35.5429C127.114 35.5429 126.098 35.4229 125.186 35.1829C124.29 34.9429 123.49 34.5749 122.786 34.0789L123.434 31.9189C123.898 32.2229 124.378 32.4709 124.874 32.6629C125.37 32.8549 125.882 32.9989 126.41 33.0949C126.938 33.1909 127.474 33.2389 128.018 33.2389C129.138 33.2389 129.97 32.9589 130.514 32.3989C131.074 31.8549 131.354 31.0709 131.354 30.0469V27.1429H131.594C131.338 27.9749 130.818 28.6389 130.034 29.1349C129.266 29.6309 128.378 29.8789 127.37 29.8789C126.282 29.8789 125.33 29.6389 124.514 29.1589C123.714 28.6629 123.09 27.9589 122.642 27.0469C122.194 26.1349 121.97 25.0629 121.97 23.8309C121.97 22.5989 122.194 21.5349 122.642 20.6389C123.09 19.7269 123.714 19.0309 124.514 18.5509C125.33 18.0549 126.282 17.8069 127.37 17.8069C128.394 17.8069 129.282 18.0549 130.034 18.5509C130.802 19.0309 131.314 19.6869 131.57 20.5189L131.354 20.3749L131.594 18.0469H134.498C134.434 18.5429 134.386 19.0469 134.354 19.5589C134.322 20.0709 134.306 20.5749 134.306 21.0709V29.6869C134.306 31.5909 133.786 33.0389 132.746 34.0309C131.722 35.0389 130.218 35.5429 128.234 35.5429ZM128.186 27.5749C129.146 27.5749 129.906 27.2549 130.466 26.6149C131.042 25.9589 131.33 25.0309 131.33 23.8309C131.33 22.6309 131.042 21.7109 130.466 21.0709C129.906 20.4309 129.146 20.1109 128.186 20.1109C127.21 20.1109 126.434 20.4309 125.858 21.0709C125.282 21.7109 124.994 22.6309 124.994 23.8309C124.994 25.0309 125.282 25.9589 125.858 26.6149C126.434 27.2549 127.21 27.5749 128.186 27.5749ZM142.227 30.4069C141.171 30.4069 140.243 30.1589 139.443 29.6629C138.643 29.1509 138.019 28.4229 137.571 27.4789C137.123 26.5349 136.899 25.4069 136.899 24.0949C136.899 22.7829 137.123 21.6629 137.571 20.7349C138.019 19.7909 138.643 19.0709 139.443 18.5749C140.243 18.0629 141.171 17.8069 142.227 17.8069C143.251 17.8069 144.147 18.0629 144.915 18.5749C145.699 19.0709 146.219 19.7429 146.475 20.5909H146.211L146.475 18.0469H149.355C149.307 18.5429 149.259 19.0469 149.211 19.5589C149.179 20.0709 149.163 20.5749 149.163 21.0709V30.1669H146.187L146.163 27.6709H146.451C146.195 28.5029 145.675 29.1669 144.891 29.6629C144.107 30.1589 143.219 30.4069 142.227 30.4069ZM143.067 28.1029C144.011 28.1029 144.771 27.7749 145.347 27.1189C145.923 26.4469 146.211 25.4389 146.211 24.0949C146.211 22.7509 145.923 21.7509 145.347 21.0949C144.771 20.4389 144.011 20.1109 143.067 20.1109C142.123 20.1109 141.363 20.4389 140.787 21.0949C140.211 21.7509 139.923 22.7509 139.923 24.0949C139.923 25.4389 140.203 26.4469 140.763 27.1189C141.339 27.7749 142.107 28.1029 143.067 28.1029ZM152.406 30.1669V21.1429C152.406 20.6309 152.39 20.1109 152.358 19.5829C152.342 19.0549 152.302 18.5429 152.238 18.0469H155.142L155.478 21.3589H154.998C155.158 20.5589 155.422 19.8949 155.79 19.3669C156.174 18.8389 156.638 18.4469 157.182 18.1909C157.726 17.9349 158.318 17.8069 158.958 17.8069C159.246 17.8069 159.478 17.8229 159.654 17.8549C159.83 17.8709 160.006 17.9109 160.182 17.9749L160.158 20.6149C159.854 20.4869 159.59 20.4069 159.366 20.3749C159.158 20.3429 158.894 20.3269 158.574 20.3269C157.886 20.3269 157.302 20.4709 156.822 20.7589C156.358 21.0469 156.006 21.4469 155.766 21.9589C155.542 22.4709 155.43 23.0549 155.43 23.7109V30.1669H152.406Z" fill="#233348"/>
<ellipse cx="21.0171" cy="21.0702" rx="20.7757" ry="21.0702" fill="#458FF6"/>
<path d="M19.7603 31.1391V15.5651H13.7023V12.8091H29.1723V15.5651H23.1143V31.1391H19.7603Z" fill="white"/>
</svg>
